<?xml version="1.0" encoding="UTF-8" standalone="no"?><!DOCTYPE svg PUBLIC "-//W3C//DTD SVG 1.1//EN" "http://www.w3.org/Graphics/SVG/1.1/DTD/svg11.dtd"><svg class="bars" preserveAspectRatio="none" width="100%" height="100%" viewBox="0 0 30 5" version="1.1" xmlns="http://www.w3.org/2000/svg" xmlns:xlink="http://www.w3.org/1999/xlink" xml:space="preserve" xmlns:serif="http://www.serif.com/" style="fill-rule:evenodd;clip-rule:evenodd;stroke-linejoin:round;stroke-miterlimit:2;"><g><path d="M29.803,0.285c0,-0.057 -0.045,-0.102 -0.102,-0.102l-29.373,-0c-0.056,-0 -0.101,0.045 -0.101,0.102l-0,0.203c-0,0.056 0.045,0.101 0.101,0.101l29.373,0c0.057,0 0.102,-0.045 0.102,-0.101l0,-0.203Z"/><path d="M29.803,1.143c0,-0.056 -0.045,-0.101 -0.102,-0.101l-29.373,-0c-0.056,-0 -0.101,0.045 -0.101,0.101l-0,0.203c-0,0.056 0.045,0.102 0.101,0.102l29.373,-0c0.057,-0 0.102,-0.046 0.102,-0.102l0,-0.203Z"/><path d="M29.803,2.002c0,-0.056 -0.045,-0.102 -0.102,-0.102l-29.373,0c-0.056,0 -0.101,0.046 -0.101,0.102l-0,0.203c-0,0.056 0.045,0.102 0.101,0.102l29.373,-0c0.057,-0 0.102,-0.046 0.102,-0.102l0,-0.203Z"/><path d="M29.803,2.859c0,-0.056 -0.045,-0.102 -0.102,-0.102l-29.373,0c-0.056,0 -0.101,0.046 -0.101,0.102l-0,0.203c-0,0.056 0.045,0.101 0.101,0.101l29.373,0c0.057,0 0.102,-0.045 0.102,-0.101l0,-0.203Z"/><path d="M29.803,3.716c0,-0.056 -0.045,-0.102 -0.102,-0.102l-29.373,0c-0.056,0 -0.101,0.046 -0.101,0.102l-0,0.203c-0,0.056 0.045,0.101 0.101,0.101l29.373,0c0.057,0 0.102,-0.045 0.102,-0.101l0,-0.203Z"/></g></svg>
