<?xml version="1.0" standalone="no"?>
<!DOCTYPE svg PUBLIC "-//W3C//DTD SVG 20010904//EN"
 "http://www.w3.org/TR/2001/REC-SVG-20010904/DTD/svg10.dtd">
<svg version="1.0" xmlns="http://www.w3.org/2000/svg"
 width="1080.000000pt" height="1080.000000pt" viewBox="0 0 1080.000000 1080.000000"
 preserveAspectRatio="xMidYMid meet">
<metadata>
Created by potrace 1.14, written by Peter Selinger 2001-2017
</metadata>
<g transform="translate(0.000000,1080.000000) scale(0.100000,-0.100000)"
fill="#000000" stroke="none">
<path d="M0 5400 l0 -5400 5400 0 5400 0 0 5400 0 5400 -5400 0 -5400 0 0
-5400z m9273 1588 c3 -1417 4 -1507 21 -1573 42 -160 119 -271 222 -320 75
-36 171 -45 472 -45 l252 0 0 -191 0 -190 -377 3 c-347 4 -384 6 -454 25 -296
82 -485 304 -566 663 -15 68 -17 205 -20 1422 l-4 1348 -357 2 -357 3 -3 178
-2 177 584 0 585 0 4 -1502z m-5173 892 l0 -450 510 0 510 0 0 -180 0 -180
-511 0 -510 0 4 -827 c4 -902 3 -886 61 -1002 35 -68 67 -103 124 -134 96 -52
149 -59 505 -64 l327 -5 0 -179 0 -179 -356 0 c-401 0 -503 10 -664 63 -266
88 -398 274 -439 622 -7 57 -11 386 -11 898 l0 807 -365 0 -365 0 0 180 0 180
365 0 365 0 2 357 3 357 210 92 c116 51 216 93 223 93 9 1 12 -95 12 -449z
m-2232 -401 c149 -16 283 -46 437 -97 l140 -47 3 -223 c1 -123 -1 -222 -5
-220 -304 154 -473 204 -725 215 -346 14 -553 -62 -629 -232 -30 -67 -38 -209
-15 -287 47 -164 167 -222 675 -324 150 -30 310 -68 354 -85 238 -86 398 -252
459 -476 30 -111 30 -343 0 -456 -66 -243 -250 -439 -507 -538 -151 -59 -270
-80 -477 -86 -292 -9 -492 19 -821 115 l-162 48 -3 232 c-1 128 -1 232 1 232
2 0 58 -24 123 -54 315 -143 582 -204 844 -193 150 6 221 22 325 71 100 48
157 102 202 194 36 71 38 82 38 166 0 79 -4 98 -28 147 -74 152 -241 234 -640
318 -263 56 -352 82 -472 141 -219 107 -334 256 -374 484 -30 165 -1 376 70
524 35 73 57 102 133 178 79 79 106 98 196 143 110 54 243 93 372 109 104 13
371 14 486 1z m5071 -4 c406 -66 703 -335 836 -756 48 -152 67 -293 72 -541
l6 -228 -976 0 -976 0 5 -72 c27 -397 163 -642 434 -778 325 -163 770 -121
1294 124 54 25 103 46 107 46 6 0 8 -96 7 -222 l-3 -223 -130 -48 c-166 -62
-401 -122 -557 -143 -170 -22 -482 -15 -620 15 -107 23 -246 70 -323 108 -222
111 -416 310 -525 538 -92 192 -132 355 -152 607 -39 507 101 956 387 1243
176 175 395 285 660 329 111 19 339 19 454 1z m-1129 -4185 l0 -570 -64 0 -65
0 -7 46 -7 46 -25 -32 c-61 -78 -213 -105 -317 -56 -127 59 -195 202 -195 411
0 150 36 262 109 338 53 57 104 79 189 85 91 6 148 -14 203 -71 l39 -41 0 207
0 207 70 0 70 0 0 -570z m-1875 239 l60 -24 3 -78 c2 -42 0 -77 -3 -77 -3 0
-23 13 -43 30 -70 56 -181 75 -277 49 -59 -17 -129 -90 -149 -158 -21 -71 -21
-211 0 -282 20 -68 90 -141 149 -158 92 -25 215 -6 280 43 18 14 36 26 40 26
3 0 5 -33 3 -72 l-3 -73 -60 -24 c-81 -33 -218 -40 -301 -17 -169 49 -261 181
-272 391 -10 221 81 378 253 435 86 28 236 23 320 -11z m784 15 c74 -22 160
-107 190 -188 42 -114 50 -268 19 -396 -26 -107 -93 -195 -177 -233 -70 -32
-218 -36 -292 -8 -147 56 -219 192 -219 416 0 211 74 350 214 404 64 25 191
27 265 5z m1856 -16 c120 -63 185 -192 185 -370 l0 -58 -291 0 -292 0 6 -58
c12 -136 91 -211 233 -220 83 -5 153 9 243 49 35 16 65 29 67 29 2 0 4 -31 4
-69 l0 -69 -41 -16 c-116 -47 -287 -60 -390 -30 -160 46 -255 180 -267 376
-10 182 47 323 163 404 76 52 124 64 235 61 79 -3 103 -8 145 -29z m925 5 l55
-19 3 -72 3 -71 -68 31 c-93 42 -216 51 -286 20 -65 -29 -85 -88 -52 -152 16
-32 68 -51 225 -85 126 -26 185 -74 211 -168 14 -53 4 -132 -24 -182 -29 -51
-95 -101 -159 -120 -93 -27 -254 -17 -385 26 l-33 11 0 70 c0 63 2 70 18 64 9
-3 55 -19 102 -35 135 -48 263 -40 314 19 52 63 39 133 -34 170 -21 11 -88 31
-148 46 -135 31 -190 63 -222 128 -18 38 -21 59 -18 114 7 115 52 175 161 214
70 25 256 20 337 -9z m-4650 -598 c36 -19 60 -62 60 -110 0 -72 -51 -125 -120
-125 -69 0 -120 53 -120 125 0 97 94 155 180 110z"/>
<path d="M6592 7100 c-197 -27 -365 -123 -477 -272 -91 -120 -167 -314 -188
-480 l-7 -48 741 0 740 0 -6 73 c-35 403 -192 633 -480 707 -88 23 -237 32
-323 20z"/>
<path d="M5395 3426 c-39 -17 -59 -41 -87 -101 -21 -45 -23 -65 -23 -195 0
-141 1 -147 30 -205 36 -72 68 -96 133 -103 145 -13 216 88 216 308 0 161 -37
255 -115 295 -35 18 -114 19 -154 1z"/>
<path d="M4520 3429 c-84 -34 -130 -138 -130 -297 0 -207 70 -312 207 -312
136 0 214 137 199 352 -9 140 -54 229 -129 257 -35 13 -113 13 -147 0z"/>
<path d="M6314 3421 c-52 -24 -101 -83 -119 -145 -8 -27 -15 -53 -15 -58 0 -4
99 -8 220 -8 250 0 233 -7 205 88 -18 61 -57 110 -102 128 -46 20 -140 17
-189 -5z"/>
</g>
</svg>
